<?xml version="1.0" encoding="UTF-8" standalone="no"?>
<!DOCTYPE svg PUBLIC "-//W3C//DTD SVG 1.1//EN"
 "http://www.w3.org/Graphics/SVG/1.1/DTD/svg11.dtd">
<!-- Generated by graphviz version 9.0.0 (20230911.1827)
 -->
<!-- Title: G Pages: 1 -->
<svg width="874pt" height="828pt"
 viewBox="0.00 0.00 874.46 827.71" xmlns="http://www.w3.org/2000/svg" xmlns:xlink="http://www.w3.org/1999/xlink">
<g id="graph0" class="graph" transform="scale(1 1) rotate(0) translate(4 823.71)">
<title>G</title><style>.edge>path:hover{stroke-width:8}</style>
<polygon fill="white" stroke="none" points="-4,4 -4,-823.71 870.46,-823.71 870.46,4 -4,4"/>
<!-- EKF -->
<g id="node1" class="node">
<title>EKF</title><style>.edge>path:hover{stroke-width:8}</style>
<ellipse fill="#c04040" stroke="black" cx="75.92" cy="-415" rx="27" ry="18"/>
<text text-anchor="middle" x="75.92" y="-411.5" font-family="Helvetica,sans-Serif" font-size="10.00" fill="#ffffff">EKF</text>
</g>
<!-- main_py -->
<g id="node21" class="node">
<title>main_py</title><style>.edge>path:hover{stroke-width:8}</style>
<ellipse fill="#3c5771" stroke="black" cx="402.92" cy="-18" rx="30.37" ry="18"/>
<text text-anchor="middle" x="402.92" y="-14.5" font-family="Helvetica,sans-Serif" font-size="10.00" fill="#ffffff">main.py</text>
</g>
<!-- EKF&#45;&gt;main_py -->
<g id="edge1" class="edge">
<title>EKF&#45;&gt;main_py</title><style>.edge>path:hover{stroke-width:8}</style>
<path fill="none" stroke="black" d="M249.92,-126C287.94,-64.9 412.96,-144.26 402.92,-73"/>
<path fill="none" stroke="black" d="M80.35,-396.94C85.71,-378.26 95.9,-347.91 110.92,-325 129.18,-297.14 150.15,-302.34 163.92,-272"/>
<path fill="none" stroke="black" d="M163.92,-270C187.33,-200.03 210.93,-190.64 249.92,-128"/>
<path fill="none" stroke="black" d="M402.92,-72C401.81,-64.13 401.45,-55.55 401.46,-47.62"/>
<polygon fill="#c04040" stroke="black" points="404.95,-47.86 401.67,-37.78 397.96,-47.71 404.95,-47.86"/>
</g>
<!-- odometry -->
<g id="node24" class="node">
<title>odometry</title><style>.edge>path:hover{stroke-width:8}</style>
<ellipse fill="#bf21bf" stroke="black" cx="163.92" cy="-343" rx="33.98" ry="18"/>
<text text-anchor="middle" x="163.92" y="-339.5" font-family="Helvetica,sans-Serif" font-size="10.00" fill="#ffffff">odometry</text>
</g>
<!-- EKF&#45;&gt;odometry -->
<g id="edge2" class="edge">
<title>EKF&#45;&gt;odometry</title><style>.edge>path:hover{stroke-width:8}</style>
<path fill="none" stroke="black" d="M92.89,-400.5C105.34,-390.6 122.51,-376.94 136.86,-365.53"/>
<polygon fill="#c04040" stroke="black" points="138.96,-368.33 144.61,-359.36 134.6,-362.85 138.96,-368.33"/>
</g>
<!-- EV3_math_modules -->
<g id="node2" class="node">
<title>EV3_math_modules</title><style>.edge>path:hover{stroke-width:8}</style>
<ellipse fill="#db852f" stroke="black" cx="335.92" cy="-415" rx="62.39" ry="18"/>
<text text-anchor="middle" x="335.92" y="-411.5" font-family="Helvetica,sans-Serif" font-size="10.00" fill="#000000">EV3_math_modules</text>
</g>
<!-- avoid -->
<g id="node4" class="node">
<title>avoid</title><style>.edge>path:hover{stroke-width:8}</style>
<ellipse fill="#668f3d" stroke="black" cx="402.92" cy="-127" rx="27" ry="18"/>
<text text-anchor="middle" x="402.92" y="-123.5" font-family="Helvetica,sans-Serif" font-size="10.00" fill="#ffffff">avoid</text>
</g>
<!-- EV3_math_modules&#45;&gt;avoid -->
<g id="edge3" class="edge">
<title>EV3_math_modules&#45;&gt;avoid</title><style>.edge>path:hover{stroke-width:8}</style>
<path fill="none" stroke="black" d="M351.63,-397.48C371.8,-375.03 405.75,-332.64 418.92,-289 432.58,-243.73 421.36,-188.39 412.07,-155.79"/>
<polygon fill="#db852f" stroke="black" points="415.45,-154.88 409.22,-146.32 408.75,-156.9 415.45,-154.88"/>
</g>
<!-- goals -->
<g id="node20" class="node">
<title>goals</title><style>.edge>path:hover{stroke-width:8}</style>
<ellipse fill="#33cccc" stroke="black" cx="218.92" cy="-271" rx="27" ry="18"/>
<text text-anchor="middle" x="218.92" y="-267.5" font-family="Helvetica,sans-Serif" font-size="10.00" fill="#000000">goals</text>
</g>
<!-- EV3_math_modules&#45;&gt;goals -->
<g id="edge4" class="edge">
<title>EV3_math_modules&#45;&gt;goals</title><style>.edge>path:hover{stroke-width:8}</style>
<path fill="none" stroke="black" d="M278.27,-407.76C221.37,-400.27 140.15,-385.55 120.92,-361 111.05,-348.4 112.73,-338.74 120.92,-325 128.28,-312.64 160.18,-296.75 185.61,-285.61"/>
<polygon fill="#db852f" stroke="black" points="186.82,-288.9 194.63,-281.74 184.06,-282.46 186.82,-288.9"/>
</g>
<!-- motion_controller -->
<g id="node22" class="node">
<title>motion_controller</title><style>.edge>path:hover{stroke-width:8}</style>
<ellipse fill="#4949ac" stroke="black" cx="355.92" cy="-271" rx="54.27" ry="18"/>
<text text-anchor="middle" x="355.92" y="-267.5" font-family="Helvetica,sans-Serif" font-size="10.00" fill="#ffffff">motion_controller</text>
</g>
<!-- EV3_math_modules&#45;&gt;motion_controller -->
<g id="edge5" class="edge">
<title>EV3_math_modules&#45;&gt;motion_controller</title><style>.edge>path:hover{stroke-width:8}</style>
<path fill="none" stroke="black" d="M338.37,-396.59C341.75,-372.61 347.87,-329.14 351.92,-300.42"/>
<polygon fill="#db852f" stroke="black" points="355.37,-301 353.3,-290.61 348.44,-300.02 355.37,-301"/>
</g>
<!-- EV3_math_modules&#45;&gt;odometry -->
<g id="edge6" class="edge">
<title>EV3_math_modules&#45;&gt;odometry</title><style>.edge>path:hover{stroke-width:8}</style>
<path fill="none" stroke="black" d="M301.11,-399.83C271.91,-387.95 230.33,-371.03 200.61,-358.93"/>
<polygon fill="#db852f" stroke="black" points="202.23,-355.81 191.65,-355.29 199.59,-362.3 202.23,-355.81"/>
</g>
<!-- LinearAlgebraPurePython -->
<g id="node3" class="node">
<title>LinearAlgebraPurePython</title><style>.edge>path:hover{stroke-width:8}</style>
<ellipse fill="#b6b653" stroke="black" cx="75.92" cy="-500.11" rx="75.92" ry="18"/>
<text text-anchor="middle" x="75.92" y="-496.61" font-family="Helvetica,sans-Serif" font-size="10.00" fill="#000000">LinearAlgebraPurePython</text>
</g>
<!-- LinearAlgebraPurePython&#45;&gt;EKF -->
<g id="edge7" class="edge">
<title>LinearAlgebraPurePython&#45;&gt;EKF</title><style>.edge>path:hover{stroke-width:8}</style>
<path fill="none" stroke="black" d="M75.92,-481.89C75.92,-471.15 75.92,-457.07 75.92,-444.68"/>
<polygon fill="#b6b653" stroke="black" points="79.42,-445 75.92,-435 72.42,-445 79.42,-445"/>
</g>
<!-- avoid&#45;&gt;main_py -->
<g id="edge8" class="edge">
<title>avoid&#45;&gt;main_py</title><style>.edge>path:hover{stroke-width:8}</style>
<path fill="none" stroke="black" d="M404.13,-108.73C404.56,-98.33 404.59,-84.84 402.92,-73"/>
</g>
<!-- detect -->
<g id="node5" class="node">
<title>detect</title><style>.edge>path:hover{stroke-width:8}</style>
<ellipse fill="#2db42d" stroke="black" cx="568.92" cy="-271" rx="27" ry="18"/>
<text text-anchor="middle" x="568.92" y="-267.5" font-family="Helvetica,sans-Serif" font-size="10.00" fill="#ffffff">detect</text>
</g>
<!-- detect&#45;&gt;avoid -->
<g id="edge9" class="edge">
<title>detect&#45;&gt;avoid</title><style>.edge>path:hover{stroke-width:8}</style>
<path fill="none" stroke="black" d="M602.92,-198C594.5,-165.41 495.93,-143.65 440.39,-133.88"/>
<polygon fill="#2db42d" stroke="black" points="441.18,-130.47 430.73,-132.24 440,-137.37 441.18,-130.47"/>
<path fill="none" stroke="black" d="M583.07,-255.38C594.59,-241.66 608.16,-220.28 602.92,-200"/>
</g>
<!-- detect&#45;&gt;main_py -->
<g id="edge10" class="edge">
<title>detect&#45;&gt;main_py</title><style>.edge>path:hover{stroke-width:8}</style>
<path fill="none" stroke="black" d="M602.92,-198C595.14,-167.88 627.2,-147.46 602.92,-128"/>
<path fill="none" stroke="black" d="M602.92,-126C567.04,-97.25 409.33,-118.53 402.92,-73"/>
</g>
<!-- move -->
<g id="node23" class="node">
<title>move</title><style>.edge>path:hover{stroke-width:8}</style>
<ellipse fill="#663399" stroke="black" cx="342.92" cy="-199" rx="27" ry="18"/>
<text text-anchor="middle" x="342.92" y="-195.5" font-family="Helvetica,sans-Serif" font-size="10.00" fill="#ffffff">move</text>
</g>
<!-- detect&#45;&gt;move -->
<g id="edge11" class="edge">
<title>detect&#45;&gt;move</title><style>.edge>path:hover{stroke-width:8}</style>
<path fill="none" stroke="black" d="M546.97,-260.36C540.85,-257.82 534.18,-255.19 527.92,-253 476.9,-235.18 416.49,-218.72 378.93,-209.01"/>
<polygon fill="#2db42d" stroke="black" points="380.06,-205.69 369.5,-206.6 378.32,-212.47 380.06,-205.69"/>
</g>
<!-- ev3dev2 -->
<g id="node6" class="node">
<title>ev3dev2</title><style>.edge>path:hover{stroke-width:8}</style>
<ellipse fill="#06f980" stroke="black" cx="507.92" cy="-415" rx="29.92" ry="18"/>
<text text-anchor="middle" x="507.92" y="-411.5" font-family="Helvetica,sans-Serif" font-size="10.00" fill="#000000">ev3dev2</text>
</g>
<!-- ev3dev2&#45;&gt;detect -->
<g id="edge12" class="edge">
<title>ev3dev2&#45;&gt;detect</title><style>.edge>path:hover{stroke-width:8}</style>
<path fill="none" stroke="black" d="M513.92,-342C518.26,-322.96 531.71,-305.67 544.22,-293.03"/>
<polygon fill="#06f980" stroke="black" points="546.28,-295.91 551.1,-286.47 541.45,-290.84 546.28,-295.91"/>
</g>
<!-- ev3dev2&#45;&gt;main_py -->
<g id="edge13" class="edge">
<title>ev3dev2&#45;&gt;main_py</title><style>.edge>path:hover{stroke-width:8}</style>
<path fill="none" stroke="black" d="M533.06,-404.7C559.16,-393.86 599.51,-373.57 623.92,-344"/>
<path fill="none" stroke="black" d="M678.92,-198C660.77,-155.81 638.75,-156.72 602.92,-128"/>
<path fill="none" stroke="black" d="M623.92,-342C649.67,-310.81 627.04,-290.2 642.92,-253 654.1,-226.81 690.17,-226.16 678.92,-200"/>
</g>
<!-- ev3dev2&#45;&gt;move -->
<g id="edge14" class="edge">
<title>ev3dev2&#45;&gt;move</title><style>.edge>path:hover{stroke-width:8}</style>
<path fill="none" stroke="black" d="M513.92,-342C529.84,-272.13 432.68,-228.9 378.12,-210.44"/>
<polygon fill="#06f980" stroke="black" points="379.53,-207.21 368.94,-207.44 377.36,-213.87 379.53,-207.21"/>
<path fill="none" stroke="black" d="M509,-396.7C509.98,-382.5 511.62,-361.91 513.92,-344"/>
</g>
<!-- ev3dev2&#45;&gt;odometry -->
<g id="edge15" class="edge">
<title>ev3dev2&#45;&gt;odometry</title><style>.edge>path:hover{stroke-width:8}</style>
<path fill="none" stroke="black" d="M479.77,-408.27C419.58,-396.02 278.04,-367.22 206.67,-352.7"/>
<polygon fill="#06f980" stroke="black" points="207.41,-349.28 196.91,-350.71 206.01,-356.14 207.41,-349.28"/>
</g>
<!-- sensor -->
<g id="node25" class="node">
<title>sensor</title><style>.edge>path:hover{stroke-width:8}</style>
<ellipse fill="#a83870" stroke="black" cx="678.92" cy="-271" rx="27.21" ry="18"/>
<text text-anchor="middle" x="678.92" y="-267.5" font-family="Helvetica,sans-Serif" font-size="10.00" fill="#ffffff">sensor</text>
</g>
<!-- ev3dev2&#45;&gt;sensor -->
<g id="edge16" class="edge">
<title>ev3dev2&#45;&gt;sensor</title><style>.edge>path:hover{stroke-width:8}</style>
<path fill="none" stroke="black" d="M623.92,-342C636.31,-326.99 649.82,-309.81 660.35,-296.22"/>
<polygon fill="#06f980" stroke="black" points="662.85,-298.72 666.19,-288.66 657.31,-294.44 662.85,-298.72"/>
</g>
<!-- ev3dev2__platform -->
<g id="node7" class="node">
<title>ev3dev2__platform</title><style>.edge>path:hover{stroke-width:8}</style>
<ellipse fill="#3bce85" stroke="black" cx="605.92" cy="-698.85" rx="39.42" ry="22.63"/>
<text text-anchor="middle" x="605.92" y="-701.35" font-family="Helvetica,sans-Serif" font-size="10.00" fill="#000000">ev3dev2.</text>
<text text-anchor="middle" x="605.92" y="-689.35" font-family="Helvetica,sans-Serif" font-size="10.00" fill="#000000">_platform</text>
</g>
<!-- ev3dev2_button -->
<g id="node14" class="node">
<title>ev3dev2_button</title><style>.edge>path:hover{stroke-width:8}</style>
<ellipse fill="#228b57" stroke="black" cx="605.92" cy="-622.23" rx="47.96" ry="18"/>
<text text-anchor="middle" x="605.92" y="-618.73" font-family="Helvetica,sans-Serif" font-size="10.00" fill="#ffffff">ev3dev2.button</text>
</g>
<!-- ev3dev2__platform&#45;&gt;ev3dev2_button -->
<g id="edge17" class="edge">
<title>ev3dev2__platform&#45;&gt;ev3dev2_button</title><style>.edge>path:hover{stroke-width:8}</style>
<path fill="none" stroke="black" d="M605.92,-675.87C605.92,-668.33 605.92,-659.78 605.92,-651.8"/>
<polygon fill="#3bce85" stroke="black" points="609.42,-651.84 605.92,-641.84 602.42,-651.84 609.42,-651.84"/>
</g>
<!-- ev3dev2_motor -->
<g id="node15" class="node">
<title>ev3dev2_motor</title><style>.edge>path:hover{stroke-width:8}</style>
<ellipse fill="#228b57" stroke="black" cx="467.92" cy="-622.23" rx="46.6" ry="18"/>
<text text-anchor="middle" x="467.92" y="-618.73" font-family="Helvetica,sans-Serif" font-size="10.00" fill="#ffffff">ev3dev2.motor</text>
</g>
<!-- ev3dev2__platform&#45;&gt;ev3dev2_motor -->
<g id="edge18" class="edge">
<title>ev3dev2__platform&#45;&gt;ev3dev2_motor</title><style>.edge>path:hover{stroke-width:8}</style>
<path fill="none" stroke="black" d="M577.66,-682.57C556.46,-671.11 527.27,-655.32 504.32,-642.91"/>
<polygon fill="#3bce85" stroke="black" points="506.06,-639.87 495.6,-638.2 502.73,-646.03 506.06,-639.87"/>
</g>
<!-- ev3dev2_sensor -->
<g id="node16" class="node">
<title>ev3dev2_sensor</title><style>.edge>path:hover{stroke-width:8}</style>
<ellipse fill="#24935c" stroke="black" cx="720.92" cy="-622.23" rx="49.31" ry="18"/>
<text text-anchor="middle" x="720.92" y="-618.73" font-family="Helvetica,sans-Serif" font-size="10.00" fill="#ffffff">ev3dev2.sensor</text>
</g>
<!-- ev3dev2__platform&#45;&gt;ev3dev2_sensor -->
<g id="edge19" class="edge">
<title>ev3dev2__platform&#45;&gt;ev3dev2_sensor</title><style>.edge>path:hover{stroke-width:8}</style>
<path fill="none" stroke="black" d="M631.44,-681.29C648.08,-670.49 669.95,-656.3 687.91,-644.65"/>
<polygon fill="#3bce85" stroke="black" points="689.67,-647.67 696.16,-639.29 685.86,-641.8 689.67,-647.67"/>
</g>
<!-- ev3dev2__platform_brickpi -->
<g id="node8" class="node">
<title>ev3dev2__platform_brickpi</title><style>.edge>path:hover{stroke-width:8}</style>
<ellipse fill="#3bce85" stroke="black" cx="622.92" cy="-788.59" rx="41.54" ry="31.11"/>
<text text-anchor="middle" x="622.92" y="-797.09" font-family="Helvetica,sans-Serif" font-size="10.00" fill="#000000">ev3dev2.</text>
<text text-anchor="middle" x="622.92" y="-785.09" font-family="Helvetica,sans-Serif" font-size="10.00" fill="#000000">_platform.</text>
<text text-anchor="middle" x="622.92" y="-773.09" font-family="Helvetica,sans-Serif" font-size="10.00" fill="#000000">brickpi</text>
</g>
<!-- ev3dev2__platform_brickpi&#45;&gt;ev3dev2_button -->
<g id="edge20" class="edge">
<title>ev3dev2__platform_brickpi&#45;&gt;ev3dev2_button</title><style>.edge>path:hover{stroke-width:8}</style>
<path fill="none" stroke="black" d="M652.35,-766.33C678.47,-746.28 712.32,-716.84 710.92,-699.85"/>
</g>
<!-- ev3dev2__platform_brickpi&#45;&gt;ev3dev2_motor -->
<g id="edge21" class="edge">
<title>ev3dev2__platform_brickpi&#45;&gt;ev3dev2_motor</title><style>.edge>path:hover{stroke-width:8}</style>
<path fill="none" stroke="black" d="M592.24,-767.05C586.02,-763.49 579.4,-760.1 572.92,-757.48 496.6,-726.66 411.28,-780.9 396.92,-699.85"/>
</g>
<!-- ev3dev2__platform_brickpi&#45;&gt;ev3dev2_sensor -->
<g id="edge22" class="edge">
<title>ev3dev2__platform_brickpi&#45;&gt;ev3dev2_sensor</title><style>.edge>path:hover{stroke-width:8}</style>
<path fill="none" stroke="black" d="M824.92,-697.85C823.58,-668.55 795.98,-649.63 769.55,-638.17"/>
<polygon fill="#3bce85" stroke="black" points="771.14,-635.04 760.56,-634.56 768.53,-641.53 771.14,-635.04"/>
<path fill="none" stroke="black" d="M654.18,-767.6C660.29,-764.03 666.72,-760.49 672.92,-757.48 737.9,-725.91 828.22,-772.03 824.92,-699.85"/>
</g>
<!-- ev3dev2__platform_brickpi3 -->
<g id="node9" class="node">
<title>ev3dev2__platform_brickpi3</title><style>.edge>path:hover{stroke-width:8}</style>
<ellipse fill="#3bce85" stroke="black" cx="319.92" cy="-788.59" rx="41.54" ry="31.11"/>
<text text-anchor="middle" x="319.92" y="-797.09" font-family="Helvetica,sans-Serif" font-size="10.00" fill="#000000">ev3dev2.</text>
<text text-anchor="middle" x="319.92" y="-785.09" font-family="Helvetica,sans-Serif" font-size="10.00" fill="#000000">_platform.</text>
<text text-anchor="middle" x="319.92" y="-773.09" font-family="Helvetica,sans-Serif" font-size="10.00" fill="#000000">brickpi3</text>
</g>
<!-- ev3dev2__platform_brickpi3&#45;&gt;ev3dev2_button -->
<g id="edge23" class="edge">
<title>ev3dev2__platform_brickpi3&#45;&gt;ev3dev2_button</title><style>.edge>path:hover{stroke-width:8}</style>
<path fill="none" stroke="black" d="M350.62,-767.11C356.83,-763.54 363.45,-760.13 369.92,-757.48 433.36,-731.49 461.21,-756.89 519.92,-721.48 530.87,-714.87 528.9,-707.81 538.92,-699.85"/>
<path fill="none" stroke="black" d="M538.92,-697.85C548.94,-689.9 549.4,-685.77 557.92,-676.23 566.22,-666.91 575.41,-656.75 583.5,-647.83"/>
<polygon fill="#3bce85" stroke="black" points="586,-650.28 590.13,-640.53 580.82,-645.57 586,-650.28"/>
</g>
<!-- ev3dev2__platform_brickpi3&#45;&gt;ev3dev2_motor -->
<g id="edge24" class="edge">
<title>ev3dev2__platform_brickpi3&#45;&gt;ev3dev2_motor</title><style>.edge>path:hover{stroke-width:8}</style>
<path fill="none" stroke="black" d="M352.74,-769.37C375.96,-753.76 402.12,-729.19 396.92,-699.85"/>
<path fill="none" stroke="black" d="M396.92,-697.85C392.86,-674.96 411.24,-656.07 430.32,-643.02"/>
<polygon fill="#3bce85" stroke="black" points="432.09,-646.04 438.66,-637.73 428.34,-640.13 432.09,-646.04"/>
</g>
<!-- ev3dev2__platform_brickpi3&#45;&gt;ev3dev2_sensor -->
<g id="edge25" class="edge">
<title>ev3dev2__platform_brickpi3&#45;&gt;ev3dev2_sensor</title><style>.edge>path:hover{stroke-width:8}</style>
<path fill="none" stroke="black" d="M350.14,-766.69C356.44,-763.11 363.22,-759.81 369.92,-757.48 490.12,-715.76 541.54,-781.14 653.92,-721.48 665.22,-715.48 662.73,-707.59 672.92,-699.85"/>
<path fill="none" stroke="black" d="M672.92,-697.85C688.96,-685.66 701.14,-666.44 709.22,-650.56"/>
<polygon fill="#3bce85" stroke="black" points="712.35,-652.13 713.5,-641.6 706.03,-649.11 712.35,-652.13"/>
</g>
<!-- ev3dev2__platform_ev3 -->
<g id="node10" class="node">
<title>ev3dev2__platform_ev3</title><style>.edge>path:hover{stroke-width:8}</style>
<ellipse fill="#3bce85" stroke="black" cx="824.92" cy="-788.59" rx="41.54" ry="31.11"/>
<text text-anchor="middle" x="824.92" y="-797.09" font-family="Helvetica,sans-Serif" font-size="10.00" fill="#000000">ev3dev2.</text>
<text text-anchor="middle" x="824.92" y="-785.09" font-family="Helvetica,sans-Serif" font-size="10.00" fill="#000000">_platform.</text>
<text text-anchor="middle" x="824.92" y="-773.09" font-family="Helvetica,sans-Serif" font-size="10.00" fill="#000000">ev3</text>
</g>
<!-- ev3dev2__platform_ev3&#45;&gt;ev3dev2_button -->
<g id="edge26" class="edge">
<title>ev3dev2__platform_ev3&#45;&gt;ev3dev2_button</title><style>.edge>path:hover{stroke-width:8}</style>
<path fill="none" stroke="black" d="M806.07,-760.81C787.66,-736.21 757.7,-700.08 724.92,-676.23 702.9,-660.2 675.26,-647.52 652.16,-638.59"/>
<polygon fill="#3bce85" stroke="black" points="653.58,-635.39 642.99,-635.16 651.13,-641.94 653.58,-635.39"/>
</g>
<!-- ev3dev2__platform_ev3&#45;&gt;ev3dev2_motor -->
<g id="edge27" class="edge">
<title>ev3dev2__platform_ev3&#45;&gt;ev3dev2_motor</title><style>.edge>path:hover{stroke-width:8}</style>
<path fill="none" stroke="black" d="M795.02,-766.7C788.63,-763.08 781.75,-759.75 774.92,-757.48 694.29,-730.67 411.75,-783.52 396.92,-699.85"/>
</g>
<!-- ev3dev2__platform_ev3&#45;&gt;ev3dev2_sensor -->
<g id="edge28" class="edge">
<title>ev3dev2__platform_ev3&#45;&gt;ev3dev2_sensor</title><style>.edge>path:hover{stroke-width:8}</style>
<path fill="none" stroke="black" d="M825.6,-757.12C825.81,-740.24 825.79,-718.87 824.92,-699.85"/>
</g>
<!-- ev3dev2__platform_evb -->
<g id="node11" class="node">
<title>ev3dev2__platform_evb</title><style>.edge>path:hover{stroke-width:8}</style>
<ellipse fill="#3bce85" stroke="black" cx="420.92" cy="-788.59" rx="41.54" ry="31.11"/>
<text text-anchor="middle" x="420.92" y="-797.09" font-family="Helvetica,sans-Serif" font-size="10.00" fill="#000000">ev3dev2.</text>
<text text-anchor="middle" x="420.92" y="-785.09" font-family="Helvetica,sans-Serif" font-size="10.00" fill="#000000">_platform.</text>
<text text-anchor="middle" x="420.92" y="-773.09" font-family="Helvetica,sans-Serif" font-size="10.00" fill="#000000">evb</text>
</g>
<!-- ev3dev2__platform_evb&#45;&gt;ev3dev2_button -->
<g id="edge29" class="edge">
<title>ev3dev2__platform_evb&#45;&gt;ev3dev2_button</title><style>.edge>path:hover{stroke-width:8}</style>
<path fill="none" stroke="black" d="M452.28,-767.92C476.7,-752.36 508.34,-731.63 519.92,-721.48 529.54,-713.05 528.9,-707.81 538.92,-699.85"/>
</g>
<!-- ev3dev2__platform_evb&#45;&gt;ev3dev2_motor -->
<g id="edge30" class="edge">
<title>ev3dev2__platform_evb&#45;&gt;ev3dev2_motor</title><style>.edge>path:hover{stroke-width:8}</style>
<path fill="none" stroke="black" d="M411.32,-757.85C406.26,-741.01 400.39,-719.45 396.92,-699.85"/>
</g>
<!-- ev3dev2__platform_evb&#45;&gt;ev3dev2_sensor -->
<g id="edge31" class="edge">
<title>ev3dev2__platform_evb&#45;&gt;ev3dev2_sensor</title><style>.edge>path:hover{stroke-width:8}</style>
<path fill="none" stroke="black" d="M451.27,-767.05C457.56,-763.44 464.3,-760.03 470.92,-757.48 548.26,-727.65 582.07,-762.82 653.92,-721.48 665.01,-715.1 662.73,-707.59 672.92,-699.85"/>
</g>
<!-- ev3dev2__platform_fake -->
<g id="node12" class="node">
<title>ev3dev2__platform_fake</title><style>.edge>path:hover{stroke-width:8}</style>
<ellipse fill="#3bce85" stroke="black" cx="521.92" cy="-788.59" rx="41.54" ry="31.11"/>
<text text-anchor="middle" x="521.92" y="-797.09" font-family="Helvetica,sans-Serif" font-size="10.00" fill="#000000">ev3dev2.</text>
<text text-anchor="middle" x="521.92" y="-785.09" font-family="Helvetica,sans-Serif" font-size="10.00" fill="#000000">_platform.</text>
<text text-anchor="middle" x="521.92" y="-773.09" font-family="Helvetica,sans-Serif" font-size="10.00" fill="#000000">fake</text>
</g>
<!-- ev3dev2__platform_fake&#45;&gt;ev3dev2_button -->
<g id="edge32" class="edge">
<title>ev3dev2__platform_fake&#45;&gt;ev3dev2_button</title><style>.edge>path:hover{stroke-width:8}</style>
<path fill="none" stroke="black" d="M710.92,-697.85C708.48,-668.34 680.47,-649.39 654,-637.97"/>
<polygon fill="#3bce85" stroke="black" points="655.59,-634.84 645,-634.38 652.99,-641.34 655.59,-634.84"/>
<path fill="none" stroke="black" d="M552.77,-767.46C558.97,-763.86 565.54,-760.35 571.92,-757.48 632.91,-730.04 716.42,-766.5 710.92,-699.85"/>
</g>
<!-- ev3dev2__platform_fake&#45;&gt;ev3dev2_motor -->
<g id="edge33" class="edge">
<title>ev3dev2__platform_fake&#45;&gt;ev3dev2_motor</title><style>.edge>path:hover{stroke-width:8}</style>
<path fill="none" stroke="black" d="M489.81,-768.22C461.05,-750.76 422.43,-727.01 415.92,-721.48 406.16,-713.2 399.15,-712.45 396.92,-699.85"/>
</g>
<!-- ev3dev2__platform_fake&#45;&gt;ev3dev2_sensor -->
<g id="edge34" class="edge">
<title>ev3dev2__platform_fake&#45;&gt;ev3dev2_sensor</title><style>.edge>path:hover{stroke-width:8}</style>
<path fill="none" stroke="black" d="M552.61,-767.08C558.83,-763.52 565.44,-760.12 571.92,-757.48 636.62,-731.14 681.55,-776.24 724.92,-721.48 740.46,-701.85 736.89,-672.47 730.99,-650.95"/>
<polygon fill="#3bce85" stroke="black" points="734.42,-650.19 728.14,-641.66 727.73,-652.25 734.42,-650.19"/>
</g>
<!-- ev3dev2__platform_pistorms -->
<g id="node13" class="node">
<title>ev3dev2__platform_pistorms</title><style>.edge>path:hover{stroke-width:8}</style>
<ellipse fill="#3bce85" stroke="black" cx="723.92" cy="-788.59" rx="41.54" ry="31.11"/>
<text text-anchor="middle" x="723.92" y="-797.09" font-family="Helvetica,sans-Serif" font-size="10.00" fill="#000000">ev3dev2.</text>
<text text-anchor="middle" x="723.92" y="-785.09" font-family="Helvetica,sans-Serif" font-size="10.00" fill="#000000">_platform.</text>
<text text-anchor="middle" x="723.92" y="-773.09" font-family="Helvetica,sans-Serif" font-size="10.00" fill="#000000">pistorms</text>
</g>
<!-- ev3dev2__platform_pistorms&#45;&gt;ev3dev2_button -->
<g id="edge35" class="edge">
<title>ev3dev2__platform_pistorms&#45;&gt;ev3dev2_button</title><style>.edge>path:hover{stroke-width:8}</style>
<path fill="none" stroke="black" d="M718.43,-757.25C715.64,-740.4 712.5,-719.04 710.92,-699.85"/>
</g>
<!-- ev3dev2__platform_pistorms&#45;&gt;ev3dev2_motor -->
<g id="edge36" class="edge">
<title>ev3dev2__platform_pistorms&#45;&gt;ev3dev2_motor</title><style>.edge>path:hover{stroke-width:8}</style>
<path fill="none" stroke="black" d="M693.68,-766.75C687.37,-763.17 680.61,-759.85 673.92,-757.48 614.65,-736.49 407.89,-761.76 396.92,-699.85"/>
</g>
<!-- ev3dev2__platform_pistorms&#45;&gt;ev3dev2_sensor -->
<g id="edge37" class="edge">
<title>ev3dev2__platform_pistorms&#45;&gt;ev3dev2_sensor</title><style>.edge>path:hover{stroke-width:8}</style>
<path fill="none" stroke="black" d="M755.68,-768.03C785.61,-748.42 825.77,-718.53 824.92,-699.85"/>
</g>
<!-- ev3dev2_sensor_lego -->
<g id="node17" class="node">
<title>ev3dev2_sensor_lego</title><style>.edge>path:hover{stroke-width:8}</style>
<ellipse fill="#3ab075" stroke="black" cx="630.92" cy="-500.11" rx="37.3" ry="31.11"/>
<text text-anchor="middle" x="630.92" y="-508.61" font-family="Helvetica,sans-Serif" font-size="10.00" fill="#000000">ev3dev2.</text>
<text text-anchor="middle" x="630.92" y="-496.61" font-family="Helvetica,sans-Serif" font-size="10.00" fill="#000000">sensor.</text>
<text text-anchor="middle" x="630.92" y="-484.61" font-family="Helvetica,sans-Serif" font-size="10.00" fill="#000000">lego</text>
</g>
<!-- ev3dev2_button&#45;&gt;ev3dev2_sensor_lego -->
<g id="edge38" class="edge">
<title>ev3dev2_button&#45;&gt;ev3dev2_sensor_lego</title><style>.edge>path:hover{stroke-width:8}</style>
<path fill="none" stroke="black" d="M609.5,-604.02C612.87,-587.85 618.03,-563.04 622.44,-541.83"/>
<polygon fill="#228b57" stroke="black" points="625.82,-542.81 624.43,-532.3 618.96,-541.38 625.82,-542.81"/>
</g>
<!-- ev3dev2_button&#45;&gt;main_py -->
<g id="edge39" class="edge">
<title>ev3dev2_button&#45;&gt;main_py</title><style>.edge>path:hover{stroke-width:8}</style>
<path fill="none" stroke="black" d="M637.23,-608.32C675.13,-590.36 733.92,-553.99 733.92,-501.11 733.92,-501.11 733.92,-501.11 733.92,-342 733.92,-301.55 730.8,-290.2 714.92,-253 703.74,-226.81 691.07,-225.75 678.92,-200"/>
</g>
<!-- ev3dev2_button&#45;&gt;move -->
<g id="edge40" class="edge">
<title>ev3dev2_button&#45;&gt;move</title><style>.edge>path:hover{stroke-width:8}</style>
<path fill="none" stroke="black" d="M569.78,-610.09C534.33,-597.15 481.8,-572.17 454.92,-531.23 386.48,-427 483.59,-359.61 418.92,-253 408.79,-236.3 391.18,-223.52 375.45,-214.7"/>
<polygon fill="#228b57" stroke="black" points="377.31,-211.72 366.83,-210.17 374.06,-217.92 377.31,-211.72"/>
</g>
<!-- ev3dev2_motor&#45;&gt;detect -->
<g id="edge41" class="edge">
<title>ev3dev2_motor&#45;&gt;detect</title><style>.edge>path:hover{stroke-width:8}</style>
<path fill="none" stroke="black" d="M585.92,-342C580.91,-328.64 576.99,-313.29 574.18,-300.37"/>
<polygon fill="#228b57" stroke="black" points="577.66,-299.9 572.22,-290.8 570.8,-301.3 577.66,-299.9"/>
<path fill="none" stroke="black" d="M585.92,-414C596.83,-384.86 596.84,-373.13 585.92,-344"/>
<path fill="none" stroke="black" d="M485.57,-605.22C503.26,-588.34 530.19,-560.22 546.92,-531.23 573.94,-484.4 566.96,-466.63 585.92,-416"/>
</g>
<!-- ev3dev2_motor&#45;&gt;odometry -->
<g id="edge42" class="edge">
<title>ev3dev2_motor&#45;&gt;odometry</title><style>.edge>path:hover{stroke-width:8}</style>
<path fill="none" stroke="black" d="M450.26,-605.12C398.79,-558.19 248.8,-421.4 188.97,-366.85"/>
<polygon fill="#228b57" stroke="black" points="191.37,-364.29 181.62,-360.14 186.65,-369.47 191.37,-364.29"/>
</g>
<!-- ev3dev2_motor&#45;&gt;sensor -->
<g id="edge43" class="edge">
<title>ev3dev2_motor&#45;&gt;sensor</title><style>.edge>path:hover{stroke-width:8}</style>
<path fill="none" stroke="black" d="M661.92,-342C666.93,-328.64 670.85,-313.29 673.66,-300.37"/>
<polygon fill="#228b57" stroke="black" points="677.04,-301.3 675.62,-290.8 670.18,-299.9 677.04,-301.3"/>
<path fill="none" stroke="black" d="M585.92,-414C603.87,-371.73 645.8,-387 661.92,-344"/>
</g>
<!-- ev3dev2_sensor&#45;&gt;detect -->
<g id="edge44" class="edge">
<title>ev3dev2_sensor&#45;&gt;detect</title><style>.edge>path:hover{stroke-width:8}</style>
<path fill="none" stroke="black" d="M661.92,-414C642.66,-372.31 602.04,-387 585.92,-344"/>
<path fill="none" stroke="black" d="M717.79,-603.84C710.88,-567.65 692.47,-482.13 661.92,-416"/>
</g>
<!-- ev3dev2_sensor&#45;&gt;sensor -->
<g id="edge45" class="edge">
<title>ev3dev2_sensor&#45;&gt;sensor</title><style>.edge>path:hover{stroke-width:8}</style>
<path fill="none" stroke="black" d="M661.92,-414C648.87,-385.76 651,-373.13 661.92,-344"/>
</g>
<!-- ev3dev2_sensor_lego&#45;&gt;detect -->
<g id="edge46" class="edge">
<title>ev3dev2_sensor_lego&#45;&gt;detect</title><style>.edge>path:hover{stroke-width:8}</style>
<path fill="none" stroke="black" d="M623.92,-414C622.47,-378.63 598.35,-377.15 585.92,-344"/>
<path fill="none" stroke="black" d="M627.73,-468.76C626.24,-453.03 624.64,-433.51 623.92,-416"/>
</g>
<!-- ev3dev2_sensor_lego&#45;&gt;sensor -->
<g id="edge47" class="edge">
<title>ev3dev2_sensor_lego&#45;&gt;sensor</title><style>.edge>path:hover{stroke-width:8}</style>
<path fill="none" stroke="black" d="M623.92,-414C622.47,-378.63 649.49,-377.15 661.92,-344"/>
</g>
<!-- ev3dev2_stopwatch -->
<g id="node18" class="node">
<title>ev3dev2_stopwatch</title><style>.edge>path:hover{stroke-width:8}</style>
<ellipse fill="#40c080" stroke="black" cx="467.92" cy="-698.85" rx="42.6" ry="22.63"/>
<text text-anchor="middle" x="467.92" y="-701.35" font-family="Helvetica,sans-Serif" font-size="10.00" fill="#000000">ev3dev2.</text>
<text text-anchor="middle" x="467.92" y="-689.35" font-family="Helvetica,sans-Serif" font-size="10.00" fill="#000000">stopwatch</text>
</g>
<!-- ev3dev2_stopwatch&#45;&gt;ev3dev2_button -->
<g id="edge48" class="edge">
<title>ev3dev2_stopwatch&#45;&gt;ev3dev2_button</title><style>.edge>path:hover{stroke-width:8}</style>
<path fill="none" stroke="black" d="M497.19,-682.03C518.32,-670.6 546.99,-655.09 569.59,-642.87"/>
<polygon fill="#40c080" stroke="black" points="571.03,-646.07 578.16,-638.23 567.7,-639.91 571.03,-646.07"/>
</g>
<!-- ev3dev2_stopwatch&#45;&gt;ev3dev2_motor -->
<g id="edge49" class="edge">
<title>ev3dev2_stopwatch&#45;&gt;ev3dev2_motor</title><style>.edge>path:hover{stroke-width:8}</style>
<path fill="none" stroke="black" d="M467.92,-675.87C467.92,-668.33 467.92,-659.78 467.92,-651.8"/>
<polygon fill="#40c080" stroke="black" points="471.42,-651.84 467.92,-641.84 464.42,-651.84 471.42,-651.84"/>
</g>
<!-- ev3dev2_version -->
<g id="node19" class="node">
<title>ev3dev2_version</title><style>.edge>path:hover{stroke-width:8}</style>
<ellipse fill="#53b685" stroke="black" cx="500.92" cy="-500.11" rx="37.3" ry="22.63"/>
<text text-anchor="middle" x="500.92" y="-502.61" font-family="Helvetica,sans-Serif" font-size="10.00" fill="#000000">ev3dev2.</text>
<text text-anchor="middle" x="500.92" y="-490.61" font-family="Helvetica,sans-Serif" font-size="10.00" fill="#000000">version</text>
</g>
<!-- ev3dev2_version&#45;&gt;ev3dev2 -->
<g id="edge50" class="edge">
<title>ev3dev2_version&#45;&gt;ev3dev2</title><style>.edge>path:hover{stroke-width:8}</style>
<path fill="none" stroke="black" d="M502.76,-477.28C503.6,-467.28 504.61,-455.31 505.51,-444.6"/>
<polygon fill="#53b685" stroke="black" points="508.99,-445 506.34,-434.74 502.01,-444.42 508.99,-445"/>
</g>
<!-- goals&#45;&gt;avoid -->
<g id="edge51" class="edge">
<title>goals&#45;&gt;avoid</title><style>.edge>path:hover{stroke-width:8}</style>
<path fill="none" stroke="black" d="M249.92,-198C276.69,-159.79 329.61,-142.01 365.63,-134.04"/>
<polygon fill="#33cccc" stroke="black" points="366.1,-137.52 375.19,-132.09 364.7,-130.66 366.1,-137.52"/>
</g>
<!-- goals&#45;&gt;main_py -->
<g id="edge52" class="edge">
<title>goals&#45;&gt;main_py</title><style>.edge>path:hover{stroke-width:8}</style>
<path fill="none" stroke="black" d="M224.37,-252.92C229.57,-238.12 238.33,-216.55 249.92,-200"/>
<path fill="none" stroke="black" d="M249.92,-198C267.77,-172.52 233.48,-154.41 249.92,-128"/>
</g>
<!-- goals&#45;&gt;move -->
<g id="edge53" class="edge">
<title>goals&#45;&gt;move</title><style>.edge>path:hover{stroke-width:8}</style>
<path fill="none" stroke="black" d="M239.12,-258.6C259.11,-247.31 289.97,-229.89 312.85,-216.98"/>
<polygon fill="#33cccc" stroke="black" points="314.42,-220.11 321.41,-212.14 310.98,-214.01 314.42,-220.11"/>
</g>
<!-- motion_controller&#45;&gt;move -->
<g id="edge54" class="edge">
<title>motion_controller&#45;&gt;move</title><style>.edge>path:hover{stroke-width:8}</style>
<path fill="none" stroke="black" d="M352.71,-252.7C351.34,-245.32 349.7,-236.52 348.17,-228.25"/>
<polygon fill="#4949ac" stroke="black" points="351.64,-227.79 346.37,-218.59 344.76,-229.06 351.64,-227.79"/>
</g>
<!-- move&#45;&gt;avoid -->
<g id="edge55" class="edge">
<title>move&#45;&gt;avoid</title><style>.edge>path:hover{stroke-width:8}</style>
<path fill="none" stroke="black" d="M355.94,-182.81C363.72,-173.73 373.78,-162 382.59,-151.72"/>
<polygon fill="#663399" stroke="black" points="385.09,-154.18 388.94,-144.31 379.77,-149.62 385.09,-154.18"/>
</g>
<!-- move&#45;&gt;main_py -->
<g id="edge56" class="edge">
<title>move&#45;&gt;main_py</title><style>.edge>path:hover{stroke-width:8}</style>
<path fill="none" stroke="black" d="M318.11,-191.32C284.48,-180.94 230.7,-158.88 249.92,-128"/>
</g>
<!-- odometry&#45;&gt;avoid -->
<g id="edge57" class="edge">
<title>odometry&#45;&gt;avoid</title><style>.edge>path:hover{stroke-width:8}</style>
<path fill="none" stroke="black" d="M273.92,-270C302.89,-239.34 279.4,-212.97 306.92,-181 323.24,-162.04 348.09,-148.58 368.42,-139.97"/>
<polygon fill="#bf21bf" stroke="black" points="369.48,-143.32 377.47,-136.36 366.88,-136.82 369.48,-143.32"/>
<path fill="none" stroke="black" d="M187.93,-329.75C206.77,-319.73 233.33,-304.7 254.92,-289 264.08,-282.34 265.91,-280.02 273.92,-272"/>
</g>
<!-- odometry&#45;&gt;main_py -->
<g id="edge58" class="edge">
<title>odometry&#45;&gt;main_py</title><style>.edge>path:hover{stroke-width:8}</style>
<path fill="none" stroke="black" d="M160.09,-324.77C157.7,-310.06 156.34,-288.71 163.92,-272"/>
</g>
<!-- odometry&#45;&gt;motion_controller -->
<g id="edge59" class="edge">
<title>odometry&#45;&gt;motion_controller</title><style>.edge>path:hover{stroke-width:8}</style>
<path fill="none" stroke="black" d="M191.43,-331.97C222.29,-320.72 272.85,-302.28 309.79,-288.82"/>
<polygon fill="#bf21bf" stroke="black" points="310.67,-292.22 318.87,-285.51 308.28,-285.64 310.67,-292.22"/>
</g>
<!-- odometry&#45;&gt;move -->
<g id="edge60" class="edge">
<title>odometry&#45;&gt;move</title><style>.edge>path:hover{stroke-width:8}</style>
<path fill="none" stroke="black" d="M273.92,-270C289.16,-253.87 306.71,-236.07 320.3,-222.46"/>
<polygon fill="#bf21bf" stroke="black" points="322.53,-225.19 327.13,-215.64 317.58,-220.23 322.53,-225.19"/>
</g>
<!-- sensor&#45;&gt;avoid -->
<g id="edge61" class="edge">
<title>sensor&#45;&gt;avoid</title><style>.edge>path:hover{stroke-width:8}</style>
<path fill="none" stroke="black" d="M671.89,-253.47C662.42,-233.22 643.6,-199.36 616.92,-181 563.51,-144.26 487.1,-132.94 441.51,-129.48"/>
<polygon fill="#a83870" stroke="black" points="441.78,-125.99 431.57,-128.83 441.32,-132.97 441.78,-125.99"/>
</g>
<!-- sensor&#45;&gt;main_py -->
<g id="edge62" class="edge">
<title>sensor&#45;&gt;main_py</title><style>.edge>path:hover{stroke-width:8}</style>
<path fill="none" stroke="black" d="M682.58,-252.84C684.87,-238.18 686.17,-216.86 678.92,-200"/>
</g>
</g>
</svg>
